M48
INCH,TZ
T01C.016
;LEADER: 12 
;HEADER: 
;CODE  : ASCII 
;FILE  : p1_voicu_catalin-1-2.drl for  ... layers TOP and BOTTOM
;DESIGN: p1_voicu_catalin.brd
;T01 Holesize 1. = 16.000000 Tolerance = +0.000000/-0.000000 PLATED MILS Quantity = 27
%
G90
T01
X33000Y37000
X7000Y126000
X33000Y72000
X132000Y103000
X108000Y79000
X88000Y59000
X104000Y58000
X60827Y28173
X35500Y112500
X91000Y120000
X132000Y110000
X149000Y93000
X118000Y76000
X122000Y130000
X105000Y137000
X45000Y75000
X84000Y103000
X64000Y92000
X58000Y114000
X139000Y150000
X32000Y29000
X64000Y134000
X57000Y119260
X106000Y131000
X151000Y122000
X136000Y39000
X108000Y44000
M30
