G04 ================== begin FILE IDENTIFICATION RECORD ==================*
G04 Layout Name:  p1_voicu_catalin.brd*
G04 Film Name:    SMTOP*
G04 File Format:  Gerber RS274X*
G04 File Origin:  Cadence Allegro 24.1-P001*
G04 Origin Date:  Sat Dec 14 12:07:36 2024*
G04 *
G04 Layer:  VIA CLASS/SOLDERMASK_TOP*
G04 Layer:  PIN/SOLDERMASK_TOP*
G04 Layer:  PACKAGE GEOMETRY/SOLDERMASK_TOP*
G04 Layer:  DRC ERROR CLASS/SOLDERMASK_TOP*
G04 Layer:  BOARD GEOMETRY/SOLDERMASK_TOP*
G04 *
G04 Offset:    (0.00 0.00)*
G04 Mirror:    No*
G04 Mode:      Positive*
G04 Rotation:  0*
G04 FullContactRelief:  No*
G04 UndefLineWidth:     0.10*
G04 ================== end FILE IDENTIFICATION RECORD ====================*
%FSLAX25Y25*MOIN*%
%IR0*IPPOS*OFA0.00000B0.00000*MIA0B0*SFA1.00000B1.00000*%
%ADD12R,.12X.076*%
%ADD13C,.06*%
%ADD23R,.063X.11811*%
%ADD11C,.044*%
%ADD14R,.05511X.05511*%
%ADD10R,.0611X.04724*%
%ADD19R,.04724X.0611*%
%ADD22R,.248X.23228*%
%ADD18R,.05511X.05905*%
%ADD17R,.04252X.02755*%
%ADD21R,.04331X.05709*%
%ADD16R,.08661X.05511*%
%ADD15R,.02755X.04252*%
%ADD20R,.05511X.08661*%
%LPD*%
G75*
G54D10*
X11000Y35740D03*
Y28260D03*
Y52740D03*
Y45260D03*
Y70740D03*
Y63260D03*
Y97260D03*
Y87740D03*
Y80260D03*
Y104740D03*
X16000Y124740D03*
Y117260D03*
X25000Y41260D03*
Y48740D03*
Y67740D03*
Y60260D03*
Y97260D03*
X47000Y81260D03*
Y88740D03*
X28000Y124740D03*
Y117260D03*
X25000Y104740D03*
X71000Y23260D03*
Y30740D03*
Y42260D03*
Y49740D03*
Y68740D03*
Y61260D03*
Y88740D03*
Y81260D03*
X64000Y148740D03*
Y141260D03*
X49000Y148740D03*
Y141260D03*
X89000Y10260D03*
X103000D03*
X89000Y17740D03*
X103000D03*
X102000Y35740D03*
Y28260D03*
X104000Y118740D03*
Y111260D03*
X131000Y10260D03*
X117000D03*
X127000Y27260D03*
Y34740D03*
X131000Y17740D03*
X117000D03*
X115000Y35740D03*
Y28260D03*
X151000Y139260D03*
Y146740D03*
G54D20*
X89173Y92000D03*
G54D11*
X7000Y126000D03*
X32000Y29000D03*
X33000Y37000D03*
Y72000D03*
X45000Y75000D03*
X35500Y112500D03*
X60827Y28173D03*
X64000Y92000D03*
X57000Y119260D03*
X64000Y134000D03*
X58000Y114000D03*
X104000Y58000D03*
X88000Y59000D03*
X84000Y103000D03*
X106000Y131000D03*
X91000Y120000D03*
X105000Y137000D03*
X108000Y44000D03*
X136000Y39000D03*
X118000Y76000D03*
X108000Y79000D03*
X132000Y103000D03*
X122000Y130000D03*
X132000Y110000D03*
X149000Y93000D03*
X151000Y122000D03*
X139000Y150000D03*
G54D21*
X88543Y148000D03*
X81457D03*
G54D12*
X13000Y138000D03*
Y148500D03*
X146000Y102500D03*
Y113000D03*
G54D22*
X140000Y55764D03*
G54D13*
X20000Y20000D03*
X140000Y140000D03*
G54D14*
X41472Y28173D03*
X50528D03*
X110827Y87472D03*
Y96528D03*
G54D23*
X130984Y82339D03*
X140000D03*
X149016D03*
G54D15*
X42260Y59669D03*
Y98669D03*
Y125331D03*
X46000Y68331D03*
X49740Y59669D03*
X67740Y98669D03*
X60260D03*
X49740D03*
X46000Y116669D03*
X49740Y125331D03*
X64000Y107331D03*
X46000D03*
G54D16*
Y49827D03*
G54D17*
X27669Y83000D03*
X36331Y86740D03*
Y79260D03*
X73331Y123000D03*
X64669Y119260D03*
Y126740D03*
X95331Y70000D03*
X86669Y66260D03*
Y73740D03*
X83669Y130000D03*
X92331Y126260D03*
Y133740D03*
X119669Y120000D03*
X128331Y123740D03*
Y116260D03*
G54D18*
X34000Y148937D03*
Y141063D03*
X148000Y34937D03*
Y27063D03*
G54D19*
X91740Y33000D03*
X84260D03*
X91740Y47000D03*
X84260D03*
X90740Y112000D03*
X83260D03*
X97260Y146000D03*
X104740D03*
X118740Y65000D03*
X111260D03*
X118740Y52000D03*
X111260D03*
X125740Y138000D03*
X118260D03*
Y149000D03*
X125740D03*
X143260Y129000D03*
X150740D03*
M02*
