G04 ================== begin FILE IDENTIFICATION RECORD ==================*
G04 Layout Name:  p1_voicu_catalin.brd*
G04 Film Name:    TOP*
G04 File Format:  Gerber RS274X*
G04 File Origin:  Cadence Allegro 24.1-P001*
G04 Origin Date:  Sat Dec 14 12:07:36 2024*
G04 *
G04 Layer:  ETCH/TOP*
G04 Layer:  PIN/TOP*
G04 Layer:  VIA CLASS/TOP*
G04 *
G04 Offset:    (0.00 0.00)*
G04 Mirror:    No*
G04 Mode:      Positive*
G04 Rotation:  0*
G04 FullContactRelief:  No*
G04 UndefLineWidth:     0.10*
G04 ================== end FILE IDENTIFICATION RECORD ====================*
%FSLAX25Y25*MOIN*%
%IR0*IPPOS*OFA0.00000B0.00000*MIA0B0*SFA1.00000B1.00000*%
%ADD12R,.12X.076*%
%ADD13C,.06*%
%ADD11C,.034*%
%ADD23R,.063X.11811*%
%ADD14R,.05511X.05511*%
%ADD10R,.0611X.04724*%
%ADD19R,.04724X.0611*%
%ADD22R,.248X.23228*%
%ADD18R,.05511X.05905*%
%ADD17R,.04252X.02755*%
%ADD21R,.04331X.05709*%
%ADD16R,.08661X.05511*%
%ADD15R,.02755X.04252*%
%ADD20R,.05511X.08661*%
%ADD24C,.02*%
%ADD25C,.026*%
%ADD26C,.018*%
G75*
%LPD*%
G75*
G36*
G01X151302Y90000D02*
X155999D01*
Y42000D01*
X126364D01*
X123000Y45364D01*
Y90000D01*
X126099D01*
G02X126415Y89354I0J-400D01*
G03X126032Y88244I1419J-1111D01*
G01Y76434D01*
G03X127834Y74632I1802J0D01*
G01X134134D01*
G03X135936Y76434I0J1802D01*
G01Y88244D01*
G03X135553Y89354I-1802J-1D01*
G02X135869Y90000I316J246D01*
G01X146698D01*
Y89365D01*
G03X146713Y89105I2302J2D01*
G01X146714Y89094D01*
Y88746D01*
X145866D01*
G03X145364Y88244I0J-502D01*
G01Y76434D01*
G03X145866Y75932I502J0D01*
G01X152166D01*
G03X152668Y76434I0J502D01*
G01Y88244D01*
G03X152166Y88746I-502J0D01*
G01X151318D01*
Y89349D01*
G03X151303Y89609I-2302J-2D01*
G01X151302Y89620D01*
Y90000D01*
G37*
%LPC*%
G75*
G36*
G01X136348Y76434D02*
Y88244D01*
G02X136850Y88746I502J0D01*
G01X143150D01*
G02X143652Y88244I0J-502D01*
G01Y76434D01*
G02X143150Y75932I-502J0D01*
G01X136850D01*
G02X136348Y76434I0J502D01*
G37*
G36*
G01X127098Y44150D02*
Y67378D01*
G02X127600Y67880I502J0D01*
G01X152400D01*
G02X152902Y67378I0J-502D01*
G01Y44150D01*
G02X152400Y43648I-502J0D01*
G01X127600D01*
G02X127098Y44150I0J502D01*
G37*
%LPD*%
G75*
G54D10*
X11000Y35740D03*
Y28260D03*
Y52740D03*
Y45260D03*
Y70740D03*
Y63260D03*
Y97260D03*
Y87740D03*
Y80260D03*
Y104740D03*
X16000Y124740D03*
Y117260D03*
X25000Y41260D03*
Y48740D03*
Y67740D03*
Y60260D03*
Y97260D03*
X47000Y81260D03*
Y88740D03*
X28000Y124740D03*
Y117260D03*
X25000Y104740D03*
X71000Y23260D03*
Y30740D03*
Y42260D03*
Y49740D03*
Y68740D03*
Y61260D03*
Y88740D03*
Y81260D03*
X64000Y148740D03*
Y141260D03*
X49000Y148740D03*
Y141260D03*
X89000Y10260D03*
X103000D03*
X89000Y17740D03*
X103000D03*
X102000Y35740D03*
Y28260D03*
X104000Y118740D03*
Y111260D03*
X131000Y10260D03*
X117000D03*
X127000Y27260D03*
Y34740D03*
X131000Y17740D03*
X117000D03*
X115000Y35740D03*
Y28260D03*
X151000Y139260D03*
Y146740D03*
G54D20*
X89173Y92000D03*
G54D11*
X7000Y126000D03*
X32000Y29000D03*
X33000Y37000D03*
Y72000D03*
X45000Y75000D03*
X35500Y112500D03*
X60827Y28173D03*
X64000Y92000D03*
X57000Y119260D03*
X64000Y134000D03*
X58000Y114000D03*
X104000Y58000D03*
X88000Y59000D03*
X84000Y103000D03*
X106000Y131000D03*
X91000Y120000D03*
X105000Y137000D03*
X108000Y44000D03*
X136000Y39000D03*
X118000Y76000D03*
X108000Y79000D03*
X132000Y103000D03*
X122000Y130000D03*
X132000Y110000D03*
X149000Y93000D03*
X151000Y122000D03*
X139000Y150000D03*
G54D21*
X88543Y148000D03*
X81457D03*
G54D12*
X13000Y138000D03*
Y148500D03*
X146000Y102500D03*
Y113000D03*
G54D22*
X140000Y55764D03*
G54D13*
X20000Y20000D03*
X140000Y140000D03*
G54D14*
X41472Y28173D03*
X50528D03*
X110827Y87472D03*
Y96528D03*
G54D23*
X130984Y82339D03*
X140000D03*
X149016D03*
G54D24*
G01X13000Y148500D02*
X23500D01*
X23937Y148937D01*
X34000D01*
G01X28000Y124740D02*
X32740D01*
X43000Y135000D01*
Y148740D01*
G01X49000D02*
X43000D01*
G01D02*
X37961D01*
X37764Y148937D01*
X34000D01*
G01X81457Y148000D02*
X72999D01*
X72259Y148740D01*
X64000D01*
G01X49000D02*
X64000D01*
G01X102000Y35740D02*
X108000D01*
G01X106000Y131000D02*
X110000Y135000D01*
Y150000D01*
X105000Y155000D01*
X83000D01*
X81457Y153457D01*
Y148000D01*
G01X108000Y44000D02*
Y35740D01*
G01D02*
X115000D01*
G01X140000Y55764D02*
X127575D01*
X124000Y59339D01*
G01D02*
Y75799D01*
G01D02*
X119000Y80799D01*
Y102000D01*
X109700Y111300D01*
Y124100D01*
X106000Y127800D01*
Y131000D01*
G01X128331Y123740D02*
X134740D01*
X135000Y124000D01*
G01X144000Y122000D02*
X137000D01*
X135000Y124000D01*
G01D02*
Y134000D01*
X131000Y138000D01*
X125740D01*
G01X148000Y34937D02*
X140063D01*
X136000Y39000D01*
G01X140000Y43448D02*
Y55764D01*
G01D02*
Y68080D01*
G01Y55764D02*
X153102D01*
G01X151000Y122000D02*
X144000D01*
G01X143260Y129000D02*
Y122740D01*
X144000Y122000D01*
G01X146000Y113000D02*
Y120000D01*
X144000Y122000D01*
G54D15*
X42260Y59669D03*
Y98669D03*
Y125331D03*
X46000Y68331D03*
X49740Y59669D03*
X67740Y98669D03*
X60260D03*
X49740D03*
X46000Y116669D03*
X49740Y125331D03*
X64000Y107331D03*
X46000D03*
G54D25*
G01X25000Y33000D02*
Y30600D01*
X22400Y28000D01*
X11260D01*
X11000Y28260D01*
G01X7000Y126000D02*
X13000Y132000D01*
Y138000D01*
G01X71000Y37000D02*
X33000D01*
G01X25000Y41260D02*
Y33000D01*
G01D02*
X29000D01*
X33000Y37000D01*
G01X36331Y79260D02*
Y74600D01*
X33731Y72000D01*
X33000D01*
G01X71000Y30740D02*
Y37000D01*
G01D02*
Y42260D01*
G01Y37000D02*
X77000D01*
G01X89000Y17740D02*
X96000D01*
G01D02*
X103000D01*
G01X84260Y33000D02*
Y40000D01*
G01D02*
Y47000D01*
G01X77000Y37000D02*
X80000Y40000D01*
X84260D01*
G01X77000Y37000D02*
X78000Y36000D01*
Y29000D01*
X82000Y25000D01*
X93000D01*
X96000Y22000D01*
Y17740D01*
G01X77000Y58000D02*
Y37000D01*
G01X86669Y66260D02*
X79260D01*
X77000Y64000D01*
Y58000D01*
G01D02*
X87000D01*
X88000Y59000D01*
G01X108000Y79000D02*
X108227D01*
X110827Y81600D01*
Y87472D01*
G01X132000Y103000D02*
X136000D01*
X136499Y102501D01*
X138199D01*
X138200Y102500D01*
X146000D01*
G54D16*
X46000Y49827D03*
G54D26*
G01X11000Y45260D02*
Y35740D01*
G01Y63260D02*
Y52740D01*
G01Y80260D02*
Y70740D01*
G01Y97260D02*
Y87740D01*
G01Y104740D02*
Y108109D01*
X16000Y113109D01*
Y117260D01*
G01X41472Y28173D02*
X32827D01*
X32000Y29000D01*
G01X25000Y88250D02*
X23000Y86250D01*
Y75000D01*
X25000Y73000D01*
Y67740D01*
G01Y48740D02*
Y52265D01*
X27618Y54883D01*
X48758D01*
X49740Y55865D01*
Y59669D01*
G01X42260D02*
X34331D01*
X33740Y60260D01*
X25000D01*
G01X27669Y83000D02*
Y85581D01*
X25000Y88250D01*
G01D02*
Y92000D01*
G01D02*
Y97260D01*
G01Y92000D02*
X32000D01*
X35500Y95500D01*
G01D02*
X38669Y98669D01*
X42260D01*
G01X35500Y95500D02*
X38000Y93000D01*
X46000D01*
X47000Y92000D01*
Y88740D01*
G01Y81260D02*
Y76800D01*
X45200Y75000D01*
X45000D01*
G01X16000Y124740D02*
Y128109D01*
X17891Y130000D01*
X32200D01*
X34000Y131800D01*
Y141063D01*
G01X42260Y125331D02*
Y129260D01*
X49000Y136000D01*
Y141260D01*
G01X35500Y112500D02*
X36273Y111727D01*
X45727D01*
X46000Y112000D01*
G01X28000Y117260D02*
Y113000D01*
X25000Y110000D01*
Y104740D01*
G01X89000Y10260D02*
X82800D01*
X81000Y12060D01*
Y17515D01*
X75255Y23260D01*
X71000D01*
G01X50528Y28173D02*
X60827D01*
G01X71000Y49740D02*
Y61260D01*
G01X54500Y110500D02*
X55000Y110000D01*
Y71000D01*
X52331Y68331D01*
X46000D01*
G01X71000Y68740D02*
Y81260D01*
G01X46000Y49827D02*
X55827D01*
X59000Y53000D01*
Y75845D01*
X59155Y76000D01*
Y92813D01*
X60260Y93918D01*
Y98669D01*
G01X49740D02*
Y105740D01*
X54500Y110500D01*
G01X67740Y98669D02*
Y94740D01*
X65000Y92000D01*
X64000D01*
G01X71000Y88740D02*
Y92474D01*
X74000Y95474D01*
Y113000D01*
X80000Y119000D01*
X83260D01*
G01X64669Y119260D02*
X57000D01*
G01X54500Y110500D02*
X58000Y114000D01*
G01X46000Y116669D02*
Y112000D01*
G01D02*
Y107331D01*
G01X73331Y123000D02*
X69295D01*
G01X49740Y125331D02*
X56330D01*
X57739Y126740D01*
X64669D01*
G01X69295Y123000D02*
X65555Y126740D01*
X64669D01*
G01X64000Y107331D02*
Y110857D01*
X69295Y116152D01*
Y123000D01*
G01X64000Y134000D02*
Y141260D01*
G01X117000Y10260D02*
X103000D01*
G01X89000D02*
X103000D01*
G01X102000Y28260D02*
X108000D01*
G01X91740Y33000D02*
Y37455D01*
X106285Y52000D01*
X111260D01*
G01X118000Y76000D02*
X114184D01*
X113184Y75000D01*
X103857D01*
X98857Y70000D01*
X95331D01*
G01X91740Y47000D02*
Y53739D01*
X103001Y65000D01*
X111260D01*
G01X118740D02*
Y59540D01*
X117200Y58000D01*
X104000D01*
G01X86669Y73740D02*
Y79669D01*
X89173Y82173D01*
Y92000D01*
G01X84000Y103000D02*
X86193Y105193D01*
X108807D01*
X110827Y103173D01*
Y96528D01*
G01X90740Y112000D02*
X95000D01*
X95740Y111260D01*
X104000D01*
G01X83260Y119000D02*
Y112000D01*
G01X83669Y130000D02*
Y119409D01*
X83260Y119000D01*
G01X92331Y126260D02*
Y121331D01*
X91000Y120000D01*
G01X97260Y146000D02*
Y129242D01*
X104000Y122502D01*
Y118740D01*
G01X88543Y148000D02*
Y140109D01*
X92331Y136321D01*
Y133740D01*
G01X105000Y137000D02*
Y140100D01*
X104740Y140360D01*
Y146000D01*
G01X117000Y10260D02*
X131000D01*
G01Y17740D02*
X124000D01*
G01D02*
X117000D01*
G01X108000Y28260D02*
Y24273D01*
X109273Y23000D01*
X121000D01*
X124000Y20000D01*
Y17740D01*
G01X108000Y28260D02*
X115000D01*
G01X127000Y27260D02*
X144139D01*
X144336Y27063D01*
X148000D01*
G01X118740Y52000D02*
Y46369D01*
X127000Y38109D01*
Y34740D01*
G01X132000Y110000D02*
X127000Y105000D01*
Y102342D01*
X136342Y93000D01*
X149000D01*
G01X130984Y82339D02*
Y92016D01*
X122300Y100700D01*
Y107000D01*
G01X122000Y130000D02*
X119669Y127669D01*
Y120000D01*
G01X122300Y107000D02*
X128331Y113031D01*
Y116260D01*
G01X122300Y107000D02*
X119355D01*
X113355Y113000D01*
Y152765D01*
X114945Y154355D01*
X123585D01*
X125740Y152200D01*
Y149000D01*
G01X118260D02*
Y138000D01*
G01D02*
Y136000D01*
G01X125740Y147000D02*
Y149000D01*
G01X149016Y82339D02*
Y89349D01*
X149000Y89365D01*
Y93000D01*
G01X150740Y129000D02*
Y134740D01*
X151000Y135000D01*
Y139260D01*
G01X150740Y127000D02*
Y129000D01*
G01X139000Y150000D02*
X142000Y153000D01*
X148200D01*
X151000Y150200D01*
Y146740D01*
G54D17*
X27669Y83000D03*
X36331Y86740D03*
Y79260D03*
X73331Y123000D03*
X64669Y119260D03*
Y126740D03*
X95331Y70000D03*
X86669Y66260D03*
Y73740D03*
X83669Y130000D03*
X92331Y126260D03*
Y133740D03*
X119669Y120000D03*
X128331Y123740D03*
Y116260D03*
G54D18*
X34000Y148937D03*
Y141063D03*
X148000Y34937D03*
Y27063D03*
G54D19*
X91740Y33000D03*
X84260D03*
X91740Y47000D03*
X84260D03*
X90740Y112000D03*
X83260D03*
X97260Y146000D03*
X104740D03*
X118740Y65000D03*
X111260D03*
X118740Y52000D03*
X111260D03*
X125740Y138000D03*
X118260D03*
Y149000D03*
X125740D03*
X143260Y129000D03*
X150740D03*
M02*
